<mxfile host="app.diagrams.net" modified="2021-01-30T07:44:55.351Z" agent="5.0 (Macintosh; Intel Mac OS X 10_15_6) AppleWebKit/537.36 (KHTML, like Gecko) Chrome/86.0.4240.193 Safari/537.36" etag="7reKMAkjCskUHoV8r5So" version="14.2.7" type="github">
  <diagram id="QkE70ecwvoWwlbfHRQDF" name="Page-1">
    <mxGraphModel dx="946" dy="536" grid="1" gridSize="10" guides="1" tooltips="1" connect="1" arrows="1" fold="1" page="1" pageScale="1" pageWidth="827" pageHeight="1169" math="0" shadow="0">
      <root>
        <mxCell id="0" />
        <mxCell id="1" parent="0" />
        <mxCell id="-rR85xrTGjNECqCwPGyY-2" value="Redis" style="rounded=1;whiteSpace=wrap;html=1;fillColor=#dae8fc;strokeColor=#6c8ebf;" vertex="1" parent="1">
          <mxGeometry x="330" y="190" width="120" height="60" as="geometry" />
        </mxCell>
        <mxCell id="-rR85xrTGjNECqCwPGyY-5" style="edgeStyle=orthogonalEdgeStyle;rounded=0;orthogonalLoop=1;jettySize=auto;html=1;exitX=0.875;exitY=0.5;exitDx=0;exitDy=0;exitPerimeter=0;entryX=0;entryY=0.5;entryDx=0;entryDy=0;" edge="1" parent="1" target="-rR85xrTGjNECqCwPGyY-2">
          <mxGeometry relative="1" as="geometry">
            <mxPoint x="175" y="220" as="sourcePoint" />
          </mxGeometry>
        </mxCell>
        <mxCell id="-rR85xrTGjNECqCwPGyY-6" value="Client" style="rounded=1;whiteSpace=wrap;html=1;fillColor=#ffe6cc;strokeColor=#d79b00;" vertex="1" parent="1">
          <mxGeometry x="70" y="190" width="120" height="60" as="geometry" />
        </mxCell>
        <mxCell id="-rR85xrTGjNECqCwPGyY-7" value="1. keys *&amp;nbsp; &amp;nbsp; &amp;nbsp; &amp;nbsp;&lt;br&gt;2. set key1 a&lt;br&gt;3. get key2&amp;nbsp; &amp;nbsp;" style="text;html=1;strokeColor=none;fillColor=none;align=center;verticalAlign=middle;whiteSpace=wrap;rounded=0;" vertex="1" parent="1">
          <mxGeometry x="200" y="150" width="120" height="60" as="geometry" />
        </mxCell>
        <mxCell id="-rR85xrTGjNECqCwPGyY-8" value="1. keys *&amp;nbsp; (执行时间过长)&amp;nbsp;&lt;br&gt;2. set key1 a (排队等待)&amp;nbsp;&amp;nbsp;&lt;br&gt;3. get key2 (排队等待)&amp;nbsp; &amp;nbsp; &amp;nbsp;" style="text;html=1;strokeColor=none;fillColor=none;align=center;verticalAlign=middle;whiteSpace=wrap;rounded=0;" vertex="1" parent="1">
          <mxGeometry x="470" y="195" width="170" height="50" as="geometry" />
        </mxCell>
      </root>
    </mxGraphModel>
  </diagram>
</mxfile>
